<svg xmlns="http://www.w3.org/2000/svg" width="1920" height="1080" viewBox="0 0 1920 1080"><defs><radialGradient id="g" cx="50%" cy="42%" r="70%"><stop offset="0" stop-color="#0b5962"/><stop offset="0.55" stop-color="#073a46"/><stop offset="1" stop-color="#031a27"/></radialGradient><linearGradient id="s" x1="0" y1="0" x2="1" y2="1"><stop offset="0" stop-color="#15c8cc"/><stop offset="1" stop-color="#007d89"/></linearGradient><filter id="shadow" x="-40%" y="-40%" width="180%" height="180%"><feDropShadow dx="0" dy="18" stdDeviation="24" flood-color="#000" flood-opacity=".35"/></filter></defs><rect width="1920" height="1080" fill="url(#g)"/><path d="M0 930C390 730 555 760 810 895c265 140 520 112 1110-190v375H0z" fill="#0b6670" opacity=".22"/><g filter="url(#shadow)" transform="translate(960 420)"><path d="M0-220c124 72 252 93 320 118v205c0 188-132 318-320 407-188-89-320-219-320-407v-205C-252-127-124-148 0-220z" fill="url(#s)" stroke="#18d6d7" stroke-width="10"/><path d="M0-220v730c188-89 320-219 320-407v-205C252-127 124-148 0-220z" fill="#006f7a" opacity=".28"/><rect x="-35" y="-90" width="70" height="235" rx="35" fill="#fff"/><rect x="-150" y="-10" width="60" height="175" rx="30" fill="#fff"/><rect x="90" y="-10" width="60" height="175" rx="30" fill="#fff"/><path d="M-165 155L0 285l165-130v82L0 365l-165-128z" fill="#fff"/></g><text x="960" y="870" text-anchor="middle" fill="#fff" font-family="Montserrat,Arial,sans-serif" font-size="74" font-weight="700" letter-spacing="15">KZ VOICESHIELD</text><text x="960" y="940" text-anchor="middle" fill="#39d9dc" font-family="Montserrat,Arial,sans-serif" font-size="28" font-weight="600" letter-spacing="9">DETECT. PROTECT. STAY SAFE.</text></svg>